<svg width="655" height="778" viewBox="0 0 655 778" fill="none" xmlns="http://www.w3.org/2000/svg">
<path d="M123.005 154.932C134.579 112.701 159.893 75.5289 194.949 49.2887C230.004 23.0485 272.803 9.23579 316.585 10.0326C360.366 10.8294 402.634 26.1904 436.712 53.6888C470.79 81.1873 494.734 119.256 504.763 161.88" stroke="black" stroke-width="20"/>
<path d="M24.0002 202.628C23.9827 196.418 25.2368 190.27 27.6851 184.562C30.1334 178.855 33.7242 173.709 38.2363 169.442C42.7483 165.175 48.0862 161.877 53.9211 159.75C59.756 157.624 65.9645 156.714 72.1641 157.078" stroke="black" stroke-width="20"/>
<path d="M84.472 157.106C94.7743 159.42 103.951 165.246 110.429 173.584C116.908 181.922 120.285 192.253 119.981 202.808" stroke="black" stroke-width="20"/>
<path d="M237 207.5C237 195.433 241.794 183.86 250.327 175.327C258.86 166.794 270.433 162 282.5 162" stroke="black" stroke-width="20"/>
<path d="M488.342 162.015C494.489 161.858 500.604 162.949 506.318 165.222C512.032 167.495 517.226 170.903 521.586 175.24C525.946 179.576 529.382 184.751 531.686 190.453C533.99 196.154 535.114 202.264 534.991 208.412" stroke="black" stroke-width="20"/>
<path d="M462.5 194C468.095 193.237 473.587 194.067 478.977 195.75C484.367 197.434 489.321 200.283 493.488 204.094C497.654 207.906 500.931 212.588 503.086 217.808C505.241 223.027 506.222 228.657 505.958 234.298" stroke="black" stroke-width="20"/>
<path d="M536 300.5C536 306.475 534.823 312.392 532.537 317.912C530.25 323.432 526.898 328.448 522.673 332.673C518.448 336.898 513.432 340.25 507.912 342.537C502.392 344.823 496.475 346 490.5 346" stroke="black" stroke-width="20"/>
<path d="M282.5 345C276.525 345 270.608 343.823 265.088 341.536C259.568 339.25 254.552 335.898 250.327 331.673C246.102 327.448 242.75 322.432 240.463 316.912C238.177 311.392 237 305.475 237 299.5" stroke="black" stroke-width="20"/>
<path d="M255.98 377.978C242.189 377.579 229.109 371.766 219.569 361.798C210.03 351.829 204.798 338.506 205.006 324.711" stroke="black" stroke-width="20"/>
<path d="M120 518C120 524.303 118.758 530.545 116.346 536.369C113.934 542.192 110.398 547.484 105.941 551.941C101.484 556.398 96.1924 559.934 90.3688 562.346C84.5452 564.758 78.3034 566 72 566C65.6965 566 59.4548 564.758 53.6312 562.346C47.8076 559.934 42.5161 556.398 38.0589 551.941C33.6017 547.484 30.066 542.192 27.6538 536.369C25.2416 530.545 24 524.303 24 518" stroke="black" stroke-width="20"/>
<line x1="237" y1="207" x2="237" y2="300" stroke="black" stroke-width="20"/>
<line x1="24" y1="202" x2="24" y2="519" stroke="black" stroke-width="20"/>
<path d="M120 202V518" stroke="black" stroke-width="20"/>
<path d="M530 323L530 549" stroke="black" stroke-width="20"/>
<line x1="526.386" y1="541.304" x2="620.386" y2="619.304" stroke="black" stroke-width="20"/>
<path d="M292 645H427" stroke="black" stroke-width="20"/>
<line x1="74" y1="566" x2="126" y2="566" stroke="black" stroke-width="20"/>
<path d="M429.5 646.5L522.5 723.5" stroke="black" stroke-width="20"/>
<line x1="534.999" y1="207.892" x2="535.999" y2="300.892" stroke="black" stroke-width="20"/>
<path d="M282 345L492 346" stroke="black" stroke-width="20"/>
<line x1="281" y1="162" x2="491" y2="162" stroke="black" stroke-width="20"/>
<line x1="71" y1="157" x2="124" y2="157" stroke="black" stroke-width="20"/>
<path d="M142.456 606.104C144.308 607.948 145.412 610.725 145.405 613.353C145.398 615.983 144.342 618.523 142.455 620.407C140.568 622.292 138.014 623.355 135.361 623.367C132.71 623.378 130.185 622.34 128.332 620.496" stroke="black" stroke-width="20"/>
<circle cx="10" cy="10" r="10" transform="matrix(-1 0 0 1 215 314)" fill="black"/>
<circle cx="10" cy="10" r="10" transform="matrix(-1 0 0 1 472 184)" fill="black"/>
<circle cx="10" cy="10" r="10" transform="matrix(-1 0 0 1 516 225)" fill="black"/>
<path d="M104 170C104 172.761 106.239 175 109 175C111.761 175 114 172.761 114 170C114 167.239 111.761 165 109 165C106.239 165 104 167.239 104 170Z" fill="black"/>
<path d="M104 170C104 172.761 106.239 175 109 175C111.761 175 114 172.761 114 170C114 167.239 111.761 165 109 165C106.239 165 104 167.239 104 170Z" fill="black"/>
<path d="M104 170C104 172.761 106.239 175 109 175C111.761 175 114 172.761 114 170C114 167.239 111.761 165 109 165C106.239 165 104 167.239 104 170Z" fill="black"/>
<path d="M113 157C113 162.523 117.477 167 123 167C128.523 167 133 162.523 133 157C133 151.477 128.523 147 123 147C117.477 147 113 151.477 113 157Z" fill="black"/>
<circle cx="10" cy="10" r="10" transform="matrix(-1 0 0 1 266 368)" fill="black"/>
<circle cx="10" cy="10" r="10" transform="matrix(-1 0 0 1 302 635)" fill="black"/>
<circle cx="9" cy="9" r="9" transform="matrix(-1 0 0 1 135 556)" fill="black"/>
<circle cx="10" cy="10" r="10" transform="matrix(-1 0 0 1 438 635)" fill="black"/>
<path d="M618.869 617.897C626.386 623.939 632.556 631.412 637.014 639.853C641.471 648.292 644.123 657.527 644.817 666.992C645.51 676.457 644.231 685.964 641.053 694.936C637.875 703.907 632.862 712.161 626.311 719.188C619.759 726.216 611.806 731.87 602.931 735.794C594.056 739.719 584.452 741.829 574.706 741.99C564.961 742.151 555.289 740.36 546.282 736.73C537.276 733.1 527.791 728.809 521 722" stroke="black" stroke-width="20"/>
<path d="M54.8932 730.679C46.932 726.106 40.0038 719.935 34.545 712.553C29.0861 705.172 25.2148 696.74 23.175 687.788C21.1351 678.837 20.9708 669.56 22.6924 660.542C24.4141 651.524 27.9843 642.961 33.1784 635.39C38.3725 627.82 45.0778 621.407 52.8721 616.556C60.6664 611.704 69.3808 608.519 78.4665 607.201C87.5523 605.884 96.8125 606.461 105.664 608.898C114.515 611.335 122.766 615.578 129.897 621.361" stroke="black" stroke-width="20"/>
<path d="M292 644C292 663.108 273.106 704.328 262.939 720.507C254.459 734 238.244 749.666 221.027 757.954C203.81 766.243 184.603 769.503 165.616 767.36C146.628 765.216 66 739 49 727.5" stroke="black" stroke-width="20"/>
<path d="M143 607C132.375 596.086 125.644 581.421 125 566" stroke="black" stroke-width="20"/>
</svg>
